<svg width="337" height="244" viewBox="0 0 337 244" fill="none" xmlns="http://www.w3.org/2000/svg">
<g clip-path="url(#clip0_234_644)">
<path d="M214.753 182.919V241.738H67.2258C50.417 241.738 36.7412 228.545 36.7412 212.329C36.7412 196.113 50.417 182.919 67.2258 182.919H214.753Z" fill="#F2F2F2"/>
<path d="M218.377 241.285C218.377 241.885 218.138 242.461 217.713 242.885C217.289 243.309 216.713 243.547 216.112 243.548H64.5981C56.3691 243.548 48.4771 240.282 42.6583 234.47C36.8395 228.658 33.5706 220.775 33.5706 212.555C33.5706 204.335 36.8395 196.452 42.6583 190.64C48.4771 184.827 56.3691 181.562 64.5981 181.562H216.112C216.713 181.562 217.289 181.8 217.714 182.225C218.138 182.649 218.377 183.224 218.377 183.824C218.377 184.424 218.138 185 217.714 185.424C217.289 185.848 216.713 186.087 216.112 186.087H64.5981C57.5704 186.087 50.8305 188.875 45.8612 193.839C40.8919 198.803 38.1001 205.535 38.1001 212.555C38.1001 219.575 40.8919 226.307 45.8612 231.271C50.8305 236.235 57.5704 239.023 64.5981 239.023H216.112C216.713 239.023 217.289 239.262 217.713 239.686C218.138 240.11 218.377 240.686 218.377 241.285Z" fill="#FFBA63"/>
<path d="M214.753 196.493H56.2183C56.0982 196.493 55.983 196.445 55.8981 196.36C55.8131 196.275 55.7654 196.16 55.7654 196.04C55.7654 195.92 55.8131 195.805 55.8981 195.72C55.983 195.636 56.0982 195.588 56.2183 195.588H214.753C214.873 195.588 214.989 195.636 215.074 195.72C215.159 195.805 215.206 195.92 215.206 196.04C215.206 196.16 215.159 196.275 215.074 196.36C214.989 196.445 214.873 196.493 214.753 196.493Z" fill="#CCCCCC"/>
<path d="M214.753 207.352H56.2183C56.0982 207.352 55.983 207.304 55.8981 207.219C55.8131 207.134 55.7654 207.019 55.7654 206.899C55.7654 206.779 55.8131 206.664 55.8981 206.579C55.983 206.494 56.0982 206.447 56.2183 206.447H214.753C214.873 206.447 214.989 206.494 215.074 206.579C215.159 206.664 215.206 206.779 215.206 206.899C215.206 207.019 215.159 207.134 215.074 207.219C214.989 207.304 214.873 207.352 214.753 207.352Z" fill="#CCCCCC"/>
<path d="M214.753 218.211H56.2183C56.0982 218.211 55.983 218.163 55.8981 218.078C55.8131 217.993 55.7654 217.878 55.7654 217.758C55.7654 217.638 55.8131 217.523 55.8981 217.438C55.983 217.353 56.0982 217.306 56.2183 217.306H214.753C214.873 217.306 214.989 217.353 215.074 217.438C215.159 217.523 215.206 217.638 215.206 217.758C215.206 217.878 215.159 217.993 215.074 218.078C214.989 218.163 214.873 218.211 214.753 218.211Z" fill="#CCCCCC"/>
<path d="M214.753 229.069H56.2183C56.0982 229.069 55.983 229.021 55.8981 228.936C55.8131 228.852 55.7654 228.737 55.7654 228.617C55.7654 228.497 55.8131 228.381 55.8981 228.297C55.983 228.212 56.0982 228.164 56.2183 228.164H214.753C214.873 228.164 214.989 228.212 215.074 228.297C215.159 228.381 215.206 228.497 215.206 228.617C215.206 228.737 215.159 228.852 215.074 228.936C214.989 229.021 214.873 229.069 214.753 229.069Z" fill="#CCCCCC"/>
<path d="M328.771 193.991L291.825 239.792L176.948 147.334C163.86 136.799 161.498 117.955 171.683 105.328C181.869 92.7012 200.805 90.9987 213.894 101.533L328.771 193.991Z" fill="#F2F2F2"/>
<path d="M294.931 241.711C294.554 242.178 294.007 242.476 293.41 242.54C292.812 242.604 292.214 242.429 291.746 242.053L173.765 147.096C167.358 141.939 163.263 134.45 162.383 126.278C161.503 118.105 163.909 109.918 169.072 103.517C174.235 97.1165 181.732 93.0268 189.914 92.1476C198.096 91.2685 206.292 93.6719 212.7 98.8292L330.681 193.786C330.913 193.972 331.106 194.202 331.248 194.463C331.391 194.724 331.481 195.01 331.513 195.306C331.545 195.601 331.518 195.9 331.434 196.185C331.351 196.47 331.211 196.736 331.025 196.968C330.838 197.199 330.608 197.392 330.346 197.534C330.085 197.676 329.799 197.766 329.503 197.798C329.207 197.829 328.908 197.803 328.622 197.719C328.337 197.635 328.071 197.496 327.839 197.309L209.858 102.352C207.149 100.17 204.035 98.542 200.696 97.5617C197.356 96.5814 193.856 96.2679 190.396 96.6391C186.935 97.0103 183.581 98.0588 180.526 99.725C177.471 101.391 174.775 103.642 172.591 106.349C170.407 109.057 168.779 112.167 167.799 115.503C166.819 118.839 166.506 122.336 166.879 125.792C167.252 129.249 168.303 132.598 169.972 135.649C171.642 138.7 173.896 141.393 176.607 143.573L294.588 238.53C295.056 238.906 295.355 239.453 295.419 240.049C295.483 240.646 295.308 241.243 294.931 241.711Z" fill="#CCCCCC"/>
<path d="M320.245 204.561L196.797 105.204C196.75 105.166 196.712 105.12 196.683 105.068C196.655 105.016 196.637 104.959 196.63 104.9C196.624 104.841 196.629 104.781 196.646 104.724C196.663 104.667 196.691 104.614 196.728 104.567C196.765 104.521 196.811 104.483 196.864 104.454C196.916 104.426 196.973 104.408 197.032 104.402C197.091 104.395 197.151 104.4 197.208 104.417C197.265 104.434 197.319 104.462 197.365 104.499L320.813 203.856C320.859 203.893 320.898 203.939 320.927 203.991C320.955 204.043 320.973 204.101 320.98 204.16C320.986 204.219 320.981 204.279 320.964 204.336C320.947 204.393 320.919 204.446 320.882 204.492C320.845 204.539 320.798 204.577 320.746 204.606C320.694 204.634 320.637 204.652 320.577 204.658C320.518 204.665 320.458 204.659 320.401 204.643C320.344 204.626 320.291 204.598 320.245 204.561Z" fill="#CCCCCC"/>
<path d="M313.424 213.016L189.976 113.659C189.883 113.584 189.823 113.475 189.81 113.356C189.797 113.236 189.833 113.117 189.908 113.024C189.983 112.93 190.093 112.871 190.212 112.858C190.331 112.845 190.451 112.88 190.544 112.955L313.992 212.312C314.039 212.349 314.077 212.395 314.106 212.447C314.135 212.499 314.153 212.556 314.159 212.616C314.165 212.675 314.16 212.735 314.143 212.792C314.127 212.849 314.099 212.902 314.061 212.948C314.024 212.994 313.978 213.033 313.926 213.061C313.873 213.09 313.816 213.108 313.757 213.114C313.698 213.12 313.638 213.115 313.581 213.098C313.524 213.081 313.47 213.054 313.424 213.016Z" fill="#CCCCCC"/>
<path d="M306.603 221.472L183.155 122.115C183.062 122.04 183.002 121.93 182.989 121.811C182.976 121.692 183.011 121.572 183.087 121.479C183.162 121.385 183.272 121.325 183.391 121.313C183.51 121.3 183.63 121.335 183.724 121.41L307.172 220.767C307.218 220.804 307.256 220.85 307.285 220.903C307.313 220.955 307.331 221.012 307.338 221.071C307.344 221.13 307.339 221.19 307.322 221.247C307.305 221.304 307.277 221.357 307.24 221.403C307.203 221.449 307.157 221.488 307.105 221.516C307.052 221.545 306.995 221.563 306.936 221.569C306.877 221.576 306.817 221.57 306.76 221.553C306.703 221.537 306.65 221.509 306.603 221.472Z" fill="#CCCCCC"/>
<path d="M299.783 229.927L176.335 130.57C176.288 130.533 176.25 130.487 176.221 130.435C176.193 130.383 176.175 130.326 176.168 130.266C176.162 130.207 176.167 130.148 176.184 130.091C176.201 130.034 176.229 129.98 176.266 129.934C176.303 129.888 176.349 129.849 176.402 129.821C176.454 129.793 176.511 129.775 176.57 129.768C176.629 129.762 176.689 129.767 176.746 129.784C176.803 129.801 176.857 129.828 176.903 129.866L300.351 229.223C300.397 229.26 300.436 229.306 300.465 229.358C300.493 229.41 300.511 229.467 300.518 229.527C300.524 229.586 300.519 229.646 300.502 229.703C300.485 229.76 300.457 229.813 300.42 229.859C300.383 229.905 300.336 229.944 300.284 229.972C300.232 230.001 300.175 230.019 300.115 230.025C300.056 230.031 299.996 230.026 299.939 230.009C299.882 229.992 299.829 229.965 299.783 229.927Z" fill="#CCCCCC"/>
<path d="M336.547 244H0.452957C0.332825 244 0.217614 243.952 0.132668 243.868C0.0477218 243.783 0 243.668 0 243.548C0 243.428 0.0477218 243.313 0.132668 243.228C0.217614 243.143 0.332825 243.095 0.452957 243.095H336.547C336.667 243.095 336.782 243.143 336.867 243.228C336.952 243.313 337 243.428 337 243.548C337 243.668 336.952 243.783 336.867 243.868C336.782 243.952 336.667 244 336.547 244Z" fill="#CCCCCC"/>
<path d="M153.136 176.737L147.958 176.736L145.495 156.785L153.138 156.786L153.136 176.737Z" fill="#FFB8B8"/>
<path d="M144.259 175.259H154.246V181.54H137.971C137.971 180.715 138.134 179.898 138.45 179.136C138.766 178.374 139.229 177.682 139.813 177.098C140.397 176.515 141.09 176.053 141.853 175.737C142.615 175.421 143.433 175.259 144.259 175.259Z" fill="#2F2E41"/>
<path d="M100.233 176.737L95.0549 176.736L92.5922 156.785L100.235 156.786L100.233 176.737Z" fill="#FFB8B8"/>
<path d="M91.3559 175.259H101.343V181.54H85.068C85.068 180.715 85.2306 179.898 85.5466 179.136C85.8626 178.374 86.3258 177.682 86.9097 177.098C87.4936 176.515 88.1867 176.053 88.9496 175.737C89.7125 175.421 90.5302 175.259 91.3559 175.259Z" fill="#2F2E41"/>
<path d="M117.529 28.7454V26.4831C117.529 22.6132 119.068 18.9018 121.808 16.1654C124.547 13.4289 128.263 11.8916 132.137 11.8916C136.011 11.8916 139.727 13.4289 142.466 16.1654C145.206 18.9018 146.745 22.6132 146.745 26.4831V28.7454C146.745 31.5353 145.635 34.211 143.66 36.1838C141.685 38.1566 139.007 39.2649 136.214 39.2649H128.06C126.677 39.2649 125.308 38.9928 124.03 38.4641C122.753 37.9355 121.592 37.1606 120.614 36.1838C119.636 35.207 118.86 34.0473 118.331 32.771C117.802 31.4947 117.529 30.1268 117.529 28.7454Z" fill="#2F2E41"/>
<path d="M132.137 40.0436C138.281 40.0436 143.262 35.0683 143.262 28.931C143.262 22.7937 138.281 17.8184 132.137 17.8184C125.993 17.8184 121.012 22.7937 121.012 28.931C121.012 35.0683 125.993 40.0436 132.137 40.0436Z" fill="#FFB8B8"/>
<path d="M71.6236 67.1237C72.075 66.6979 72.6145 66.3761 73.2039 66.1811C73.7934 65.986 74.4184 65.9224 75.0351 65.9948C75.6518 66.0671 76.2451 66.2737 76.7733 66.5999C77.3014 66.926 77.7515 67.3639 78.0919 67.8827L87.6288 66.0807L90.1385 71.6027L76.6349 73.9584C75.7246 74.4719 74.6573 74.6339 73.6354 74.4138C72.6134 74.1938 71.7078 73.6069 71.0901 72.7644C70.4724 71.922 70.1855 70.8824 70.2838 69.8428C70.3822 68.8032 70.8588 67.8357 71.6236 67.1237Z" fill="#FFB8B8"/>
<path d="M123.588 47.2307L107.95 57.5214L81.5612 65.9384C81.2114 66.0507 80.9114 66.2806 80.7122 66.589C80.513 66.8974 80.4269 67.2652 80.4687 67.6298L81.0443 72.5826C81.0699 72.8018 81.141 73.0133 81.2531 73.2034C81.3652 73.3936 81.5159 73.5582 81.6955 73.6868C81.875 73.8154 82.0795 73.9051 82.2958 73.9501C82.512 73.9952 82.7354 73.9946 82.9514 73.9484L107.787 68.6308C108.989 68.3749 110.125 67.8751 111.126 67.1624L128.695 54.6762C129.332 54.2211 129.84 53.609 130.17 52.8997C130.5 52.1903 130.641 51.4077 130.579 50.6279C130.514 49.8471 130.247 49.0964 129.804 48.4498C129.362 47.8032 128.758 47.283 128.052 46.9402C127.347 46.5974 126.565 46.444 125.782 46.4949C124.999 46.5458 124.243 46.7994 123.588 47.2307Z" fill="#CCCCCC"/>
<path d="M148.05 171.075C147.653 171.075 147.264 170.96 146.931 170.743C146.598 170.526 146.336 170.217 146.176 169.853L122.437 111.26C122.381 111.133 122.288 111.026 122.17 110.954C122.052 110.881 121.914 110.846 121.776 110.854C121.637 110.862 121.504 110.912 121.395 110.997C121.286 111.083 121.205 111.2 121.165 111.332L101.797 168.374C101.715 168.64 101.58 168.886 101.4 169.097C101.219 169.308 100.997 169.48 100.748 169.603C100.498 169.725 100.226 169.796 99.9485 169.809C99.6708 169.823 99.3932 169.78 99.1329 169.682L92.6382 167.249C92.2857 167.119 91.9764 166.893 91.7447 166.597C91.5131 166.301 91.3681 165.947 91.326 165.573C88.4042 140.149 113.883 75.9747 114.141 75.3296L114.212 75.1509L137.439 80.2829L137.487 80.3355C146.753 90.4332 154.37 154.122 155.803 166.787C155.857 167.244 155.752 167.706 155.508 168.097C155.263 168.487 154.893 168.783 154.457 168.934L148.725 170.96C148.508 171.036 148.28 171.075 148.05 171.075Z" fill="#2F2E41"/>
<path d="M128.038 82.3485C122.411 82.3485 116.137 81.2278 114.206 76.6021L114.162 76.4958L114.222 76.3973C115.746 73.8991 117.761 69.6375 116.678 68.8375C114.545 67.2621 113.51 64.6705 113.602 61.1344C113.801 53.4582 119.037 46.643 126.631 44.1755C128.751 43.4979 130.908 42.9431 133.092 42.5139C134.684 42.193 136.327 42.2283 137.904 42.6173C139.481 43.0062 140.952 43.7391 142.211 44.7634C143.486 45.7943 144.517 47.0946 145.23 48.5709C145.942 50.0471 146.318 51.6626 146.331 53.3014C146.411 61.5047 145.146 72.9301 138.671 80.7742C138.367 81.1382 137.945 81.3835 137.478 81.467C134.363 82.0299 131.204 82.3249 128.038 82.3485Z" fill="#CCCCCC"/>
<path d="M125.945 82.0412C126.251 80.9439 126.979 80.0117 127.969 79.4471C128.96 78.8825 130.133 78.7312 131.235 79.026C131.46 79.0888 131.679 79.17 131.891 79.2687L139.132 72.686L144.168 76.075L133.813 85.2285C133.345 86.0706 132.609 86.7324 131.721 87.1084C130.834 87.4844 129.846 87.5532 128.915 87.3037C128.372 87.1554 127.865 86.9012 127.421 86.5558C126.978 86.2103 126.607 85.7805 126.331 85.2911C126.055 84.8018 125.879 84.2626 125.812 83.7048C125.746 83.147 125.791 82.5815 125.945 82.0412Z" fill="#FFB8B8"/>
<path d="M137.985 82.1247C137.515 82.125 137.06 81.9627 136.696 81.6654L133.841 79.3345C133.603 79.1401 133.412 78.8946 133.282 78.6161C133.152 78.3376 133.088 78.0335 133.092 77.7265C133.097 77.4194 133.171 77.1174 133.31 76.8431C133.448 76.5688 133.646 76.3292 133.89 76.1423L145.867 66.9668C146.009 66.8575 146.102 66.6966 146.126 66.5192C146.15 66.3418 146.103 66.1621 145.995 66.019L138.603 56.2569C137.744 55.1264 137.313 53.729 137.387 52.3118C137.46 50.8946 138.034 49.5491 139.005 48.5135C140.028 47.4099 141.429 46.7308 142.93 46.6109C144.431 46.491 145.922 46.939 147.107 47.8662L147.154 47.9155L154.873 58.9563C155.708 59.6101 156.38 60.4477 156.837 61.4038C157.294 62.3599 157.524 63.4087 157.508 64.4681C157.492 65.5275 157.232 66.5689 156.746 67.511C156.261 68.4531 155.564 69.2704 154.71 69.8991L139.198 81.7255C138.847 81.9848 138.422 82.1247 137.985 82.1247Z" fill="#CCCCCC"/>
<path d="M122.283 25.8046V20.291L132.137 15.9927L141.533 20.291V25.8046C141.533 26.0446 141.438 26.2747 141.268 26.4444C141.098 26.6141 140.868 26.7095 140.627 26.7095H123.189C122.948 26.7095 122.718 26.6141 122.548 26.4444C122.378 26.2747 122.283 26.0446 122.283 25.8046Z" fill="#2F2E41"/>
<path d="M131.685 12.6232C130.236 7.99077 133.279 2.6818 137.777 0.848168C142.276 -0.985463 147.658 0.296301 151.454 3.32574C155.25 6.35517 157.605 10.8927 158.853 15.5831C160.1 20.2736 160.337 25.1646 160.568 30.0124C166.095 31.0265 169.855 37.5748 167.94 42.8522C166.025 48.1296 158.938 50.7514 154.044 47.993C149.15 45.2347 147.732 37.8199 151.265 33.4541C152.936 31.3884 153.87 28.8247 153.918 26.169C153.966 23.5134 153.125 20.9177 151.53 18.793C149.934 16.6683 147.675 15.136 145.109 14.439C142.543 13.7419 139.818 13.9198 137.364 14.9445C134.64 16.0824 131.223 13.126 131.685 12.6232Z" fill="#2F2E41"/>
<path d="M69.5806 45.7351C62.9632 45.6917 56.4285 44.2621 50.3987 41.5386C50.0398 41.3789 49.7351 41.1182 49.5218 40.7885C49.3086 40.4588 49.1959 40.0743 49.1975 39.6818V23.2045C49.1981 22.6647 49.4131 22.1472 49.7952 21.7655C50.1773 21.3838 50.6954 21.1691 51.2358 21.1685H87.9254C88.4658 21.1691 88.9839 21.3838 89.366 21.7655C89.7481 22.1472 89.963 22.6647 89.9637 23.2045V39.6818C89.9653 40.0743 89.8526 40.4589 89.6394 40.7886C89.4261 41.1182 89.1214 41.3789 88.7625 41.5387C82.7327 44.2621 76.198 45.6917 69.5806 45.7351Z" fill="#FFBA63"/>
<path d="M69.5756 32.3861C69.3036 32.3863 69.0343 32.3323 68.7835 32.227L39.6892 19.9658C39.314 19.8077 38.9948 19.541 38.7728 19.2C38.5508 18.859 38.4361 18.4594 38.4436 18.0527C38.451 17.646 38.5803 17.2509 38.8147 16.9183C39.049 16.5856 39.3778 16.3308 39.7585 16.1865L68.8532 5.16132C69.3218 4.98293 69.84 4.98403 70.3078 5.16441L99.0126 16.1896C99.3912 16.335 99.7177 16.5899 99.9505 16.9218C100.183 17.2536 100.311 17.6473 100.319 18.0523C100.326 18.4574 100.213 18.8555 99.9925 19.1957C99.7722 19.5359 99.4554 19.8028 99.0824 19.9621L70.3773 32.2231C70.1238 32.3309 69.8511 32.3864 69.5756 32.3861Z" fill="#FFBA63"/>
<path d="M52.5947 42.6599C54.0957 42.6599 55.3124 41.4445 55.3124 39.9452C55.3124 38.4459 54.0957 37.2305 52.5947 37.2305C51.0937 37.2305 49.877 38.4459 49.877 39.9452C49.877 41.4445 51.0937 42.6599 52.5947 42.6599Z" fill="#3F3D56"/>
<path opacity="0.2" d="M99.1816 18.2219L70.4764 30.4829C70.2526 30.5785 70.0118 30.6281 69.7684 30.6287C69.525 30.6292 69.284 30.5808 69.0598 30.4863L39.9655 18.2255C39.6001 18.0752 39.2953 17.8075 39.0992 17.4649C38.9709 17.6871 38.8914 17.934 38.866 18.1893C38.8405 18.4445 38.8697 18.7022 38.9517 18.9453C39.0336 19.1884 39.1664 19.4114 39.3412 19.5993C39.516 19.7872 39.7288 19.9358 39.9655 20.0353L69.0598 32.2961C69.284 32.3906 69.525 32.439 69.7684 32.4385C70.0118 32.4379 70.2526 32.3883 70.4764 32.2927L99.1816 20.0317C99.4172 19.9314 99.6287 19.7823 99.8023 19.5943C99.9758 19.4063 100.108 19.1836 100.189 18.941C100.27 18.6985 100.298 18.4415 100.273 18.187C100.247 17.9325 100.168 17.6864 100.04 17.4648C99.8451 17.8048 99.5434 18.0709 99.1816 18.2219Z" fill="black"/>
<path d="M52.8231 39.9342C52.9432 39.9342 53.0584 39.8865 53.1434 39.8017C53.2283 39.7168 53.276 39.6017 53.276 39.4817V24.3421L68.2151 18.9059C68.3352 18.9077 68.4511 18.8617 68.5374 18.7781C68.6236 18.6945 68.673 18.5802 68.6748 18.4602C68.6766 18.3402 68.6306 18.2244 68.5469 18.1383C68.4632 18.0521 68.3487 18.0028 68.2286 18.001L53.2895 23.4372C53.1693 23.4345 53.0498 23.4561 52.9382 23.5008C52.8266 23.5456 52.7252 23.6125 52.6403 23.6975C52.5544 23.7815 52.4863 23.8818 52.4399 23.9925C52.3935 24.1032 52.3698 24.2221 52.3701 24.3421V39.4817C52.3701 39.6017 52.4179 39.7168 52.5028 39.8017C52.5877 39.8865 52.7029 39.9342 52.8231 39.9342Z" fill="#3F3D56"/>
</g>
<defs>
<clipPath id="clip0_234_644">
<rect width="337" height="244" fill="white"/>
</clipPath>
</defs>
</svg>
