<svg xmlns="http://www.w3.org/2000/svg" fill="none" viewBox="0 0 1722 367" height="32"><g clip-path="url(#keenious-logo_svg__a)"><path fill="#6030FF" d="m186.78 103.26-58.14 25.5-.27.09c-12.66 4.53-26.61-2.52-31.86-14.88L55.89 18.39C44.79-7.71 4.95-3.39 1.83 24.81c-.12 1.17-.18 2.34-.18 3.57v299.67c0 24.27 26.64 39.12 47.28 26.37l41.52-25.65c8.1-5.01 18.06-6 27-2.73l69.33 30.81c27.96 10.29 52.92-20.91 36.75-45.93L182.1 246.9a30.97 30.97 0 0 1 0-33.66l41.4-64.05c16.17-25.02-8.79-56.19-36.72-45.93"></path><path fill="#000" d="M1468.83 363.03c-22.38 0-43.41-8.73-59.25-24.54-15.81-15.81-24.54-36.87-24.54-59.25V177.45h47.4v101.82c0 20.07 13.8 39.18 36.39 39.18s36.39-19.11 36.39-39.18V177.45h47.4v101.82c0 22.38-8.7 43.41-24.54 59.25-15.81 15.81-36.87 24.51-59.25 24.51M988.2 173.52c22.38 0 43.41 8.73 59.25 24.54 15.81 15.81 24.54 36.87 24.54 59.25v101.82h-47.4V257.31c0-20.07-13.8-39.18-36.39-39.18s-36.39 19.11-36.39 39.18v101.82h-47.4V257.31c0-22.38 8.7-43.41 24.54-59.25 15.84-15.81 36.87-24.54 59.25-24.54M535.68 287.55c6.18 22.89 23.25 34.14 51.24 34.14 17.82 0 31.62-6.18 40.71-18.18l37.8 21.81c-17.82 25.8-44.34 38.88-79.2 38.88-30.15 0-54.15-9.09-72.3-27.24s-27.24-41.07-27.24-68.67c0-27.24 9.09-50.16 26.88-68.31 17.79-18.54 41.07-27.6 69.03-27.6 26.52 0 48.69 9.09 65.76 27.6 17.43 18.54 26.16 41.07 26.16 68.31 0 6.18-.72 12.36-1.83 19.26zm91.92-36.33c-5.46-24.72-23.61-36.72-45.06-36.72-25.08 0-42.15 13.44-47.61 36.72zm115.41 36.33c6.18 22.89 23.25 34.14 51.24 34.14 17.82 0 31.62-6.18 40.71-18.18l37.8 21.81c-17.82 25.8-44.34 38.88-79.2 38.88-30.15 0-54.15-9.09-72.3-27.24s-27.24-41.07-27.24-68.67c0-27.24 9.09-50.16 26.88-68.31 17.79-18.54 41.07-27.6 69.03-27.6 26.52 0 48.69 9.09 65.76 27.6 17.43 18.54 26.16 41.07 26.16 68.31 0 6.18-.72 12.36-1.83 19.26zm91.95-36.33c-5.46-24.72-23.61-36.72-45.06-36.72-25.08 0-42.15 13.44-47.61 36.72zm257.94-121.05c0-15.63 13.08-29.07 28.71-29.07 15.99 0 29.07 13.44 29.07 29.07s-13.08 28.71-29.07 28.71c-15.6 0-28.71-13.08-28.71-28.71m5.46 228.96V177.45h46.86v181.68zm166.65 5.07c-26.88 0-49.77-9.09-68.31-27.6-18.54-18.54-27.63-41.43-27.63-68.31s9.09-49.41 27.63-67.95 41.43-27.99 68.31-27.99 49.77 9.45 68.31 27.99 27.99 41.07 27.99 67.95-9.45 49.77-27.99 68.31c-18.51 18.54-41.4 27.6-68.31 27.6m0-45.78c14.16 0 25.8-4.71 35.25-14.19 9.45-9.45 14.16-21.45 14.16-35.97 0-14.55-4.74-26.52-14.16-35.97-9.45-9.45-21.09-14.19-35.25-14.19s-25.8 4.74-35.25 14.19c-9.09 9.45-13.8 21.45-13.8 35.97s4.71 26.52 13.8 35.97c9.45 9.48 21.09 14.19 35.25 14.19M1659 249.03c26.52 5.46 61.05 18.18 60.69 57.03 0 18.54-6.9 33.06-21.06 43.23-13.8 9.81-31.26 14.91-51.96 14.91-37.44 0-62.85-14.55-76.29-43.23l40.71-22.89c5.46 15.63 17.07 23.61 35.61 23.61 16.71 0 25.08-5.1 25.08-15.63 0-9.81-14.52-15.27-33.06-19.98-26.88-6.9-60.69-18.18-60.69-55.95 0-17.82 6.54-31.98 19.62-42.15 13.44-10.53 29.79-15.63 49.41-15.63 29.43 0 54.87 13.8 69.03 38.52l-39.96 21.81c-5.82-12.36-15.63-18.54-29.07-18.54-12 0-21.06 5.82-21.06 14.91-.06 9.81 14.46 15.27 33 19.98"></path><path fill="#000" d="M443.61 359.13h54.51l-75.21-91.92 73.05-89.76h-55.98l-57.66 73.77h-11.91V101.91h-46.89v257.22h46.89v-71.58h15.84z"></path></g><defs><clipPath id="keenious-logo_svg__a"><path fill="#fff" d="M0 0h1722v367H0z"></path></clipPath></defs></svg>
