<?xml version="1.0" encoding="iso-8859-1"?>
<!-- Generator: Adobe Illustrator 26.1.0, SVG Export Plug-In . SVG Version: 6.00 Build 0)  -->
<svg version="1.1" id="Layer_1" xmlns="http://www.w3.org/2000/svg" xmlns:xlink="http://www.w3.org/1999/xlink" x="0px" y="0px"
	 viewBox="0 0 48 48" style="enable-background:new 0 0 48 48;" xml:space="preserve">
<circle style="fill-rule:evenodd;clip-rule:evenodd;fill:#288D2F;" cx="24" cy="24" r="20"/>
<g>
	<path style="opacity:0.07;" d="M23.754,21.622c0.084,0.057,0.182,0.086,0.281,0.086c0.035,0,0.07-0.004,0.104-0.011
		c0.019,0.016,0.04,0.031,0.062,0.045c0.205,0.124,0.441,0.187,0.701,0.187c1.051,0,2.247-1.051,2.413-2.122
		c0.007-0.045,0.008-0.091,0.003-0.135c0.668-0.383,0.999-1.03,1.28-1.581l0.107-0.207c0.052-0.1,0.068-0.21,0.05-0.315
		c0.169-0.064,0.334-0.149,0.479-0.275c0.287-0.25,0.451-0.591,0.596-0.893c0.053-0.111,0.107-0.224,0.167-0.33
		c0.062-0.109,0.079-0.231,0.056-0.344c0.329-0.246,0.507-0.61,0.643-0.889c0.075-0.153,0.146-0.298,0.226-0.408
		c0.112-0.152,0.125-0.347,0.05-0.508c0.134-0.143,0.228-0.355,0.334-0.678l0.061-0.184c0.184-0.556,0.367-1.111,0.545-1.669
		c0.06-0.188,0.113-0.379,0.182-0.629l0.121-0.435c0.047-0.165,0.005-0.343-0.109-0.471c-0.096-0.106-0.231-0.166-0.372-0.166
		c-0.028,0-0.057,0.002-0.085,0.007L30.76,9.85c-0.673,0.114-1.291,0.219-1.906,0.334c-0.427,0.08-0.744,0.275-0.919,0.565
		c-0.027,0.044-0.046,0.092-0.058,0.142c-0.061-0.025-0.125-0.037-0.189-0.037c-0.096,0-0.192,0.028-0.276,0.083
		c-0.408,0.269-0.965,0.74-1.268,1.072c-0.055,0.06-0.112,0.119-0.17,0.178c-0.276,0.283-0.667,0.683-0.721,1.226
		c-0.034,0.006-0.067,0.016-0.1,0.029c-0.143,0.059-0.251,0.181-0.292,0.33c-0.072,0.262-0.251,0.518-0.441,0.789
		c-0.277,0.395-0.621,0.887-0.629,1.504c-0.001,0-0.002,0.001-0.003,0.001c-0.128,0.039-0.236,0.128-0.298,0.246
		c-0.494,0.943-0.474,1.679-0.283,2.217c-0.079,0.055-0.154,0.126-0.211,0.221C22.522,19.53,22.926,21.06,23.754,21.622z"/>
	<path style="opacity:0.07;" d="M32.146,22.294H14.637c-0.276,0-0.5,0.224-0.5,0.5v12.114c0,0.276,0.224,0.5,0.5,0.5h17.509
		c0.276,0,0.5-0.224,0.5-0.5V22.794C32.646,22.518,32.422,22.294,32.146,22.294z M18.537,29.82c-0.52,0-0.943-0.423-0.943-0.943
		c0-0.52,0.423-0.943,0.943-0.943c0.52,0,0.943,0.423,0.943,0.943C19.481,29.397,19.057,29.82,18.537,29.82z M27.868,29.82
		c-0.52,0-0.943-0.423-0.943-0.943c0-0.52,0.423-0.943,0.943-0.943c0.52,0,0.943,0.423,0.943,0.943
		C28.811,29.397,28.388,29.82,27.868,29.82z"/>
	<path style="opacity:0.07;" d="M31.875,37.875c-0.019,0-0.036,0.009-0.054,0.011v-1.792c0-0.276-0.224-0.5-0.5-0.5h-15.98
		c-0.276,0-0.5,0.224-0.5,0.5v1.808c-0.043-0.012-0.085-0.027-0.131-0.027c-1.276,0-2.396,0.828-2.8,2.03
		C15.27,42.463,19.45,44,24,44c1.278,0,2.525-0.132,3.736-0.361c-0.007-0.044-0.007-0.089-0.025-0.131
		c-0.055-0.123-0.083-0.25-0.083-0.378c0-0.515,0.42-0.935,0.935-0.935c0.505,0,0.914,0.397,0.93,0.905
		c0.001,0.039,0.02,0.073,0.03,0.11c1.906-0.547,3.693-1.367,5.32-2.42C34.812,39.178,33.495,37.875,31.875,37.875z M28.564,40.637
		c-0.516,0-0.935-0.419-0.935-0.935c0-0.516,0.42-0.935,0.935-0.935c0.515,0,0.935,0.42,0.935,0.935
		C29.498,40.218,29.079,40.637,28.564,40.637z"/>
</g>
<path style="opacity:0.05;" d="M14.341,37.406c-1.282,0.139-2.381,0.982-2.852,2.185C14.916,42.344,19.262,44,24,44
	c4.202,0,8.097-1.302,11.316-3.516c-0.17-1.592-1.411-2.859-2.994-3.065v-1.326c0-0.075-0.027-0.142-0.043-0.212
	c0.487-0.067,0.868-0.468,0.868-0.973V22.794c0-0.552-0.448-1-1-1H26.57c0.61-0.465,1.09-1.13,1.225-1.829
	c0.639-0.455,0.976-1.114,1.248-1.646l0.105-0.203c0.036-0.069,0.064-0.141,0.083-0.214c0.114-0.062,0.226-0.137,0.332-0.23
	c0.365-0.318,0.561-0.726,0.718-1.053c0.048-0.101,0.096-0.203,0.151-0.298c0.067-0.118,0.108-0.244,0.124-0.371
	c0.302-0.301,0.476-0.658,0.59-0.89c0.065-0.133,0.126-0.258,0.18-0.331c0.154-0.21,0.215-0.461,0.188-0.702
	c0.1-0.167,0.185-0.371,0.268-0.623l0.061-0.184c0.184-0.557,0.368-1.115,0.547-1.674c0.062-0.194,0.117-0.391,0.188-0.648
	l0.121-0.432c0.094-0.331,0.011-0.686-0.219-0.941c-0.191-0.213-0.462-0.331-0.743-0.331c-0.056,0-0.113,0.005-0.17,0.015
	l-0.888,0.151C30,9.472,29.38,9.577,28.762,9.693c-0.615,0.115-0.967,0.404-1.165,0.666c-0.161,0.015-0.319,0.069-0.46,0.161
	c-0.444,0.293-1.029,0.788-1.362,1.151c-0.051,0.056-0.105,0.111-0.159,0.166c-0.218,0.223-0.626,0.64-0.791,1.212
	c-0.217,0.132-0.377,0.342-0.445,0.591c-0.049,0.178-0.204,0.4-0.368,0.634c-0.252,0.36-0.602,0.858-0.698,1.485
	c-0.109,0.086-0.201,0.195-0.267,0.321c-0.49,0.935-0.528,1.708-0.4,2.295c-0.028,0.036-0.054,0.074-0.079,0.115
	c-0.554,0.912-0.222,2.482,0.624,3.304h-8.556c-0.552,0-1,0.448-1,1v12.114c0,0.464,0.323,0.837,0.752,0.95
	c-0.019,0.078-0.048,0.152-0.048,0.236V37.406z"/>
<path style="fill:#FFFFFF;" d="M24.035,21.209c1.052-3.188,2.565-6.113,4.78-8.642c-1.952,2.671-3.566,5.506-4.355,8.748
	c0.763,0.461,2.2-0.544,2.361-1.584c-0.134-0.062-0.272-0.125-0.537-0.246c1.21-0.142,1.547-1.011,1.978-1.833
	c-0.194-0.133-0.345-0.237-0.473-0.325c0.389-0.132,0.841-0.169,1.117-0.41c0.302-0.263,0.44-0.712,0.657-1.092
	c-0.24-0.137-0.412-0.236-0.585-0.335c1.077,0.126,1.127-0.791,1.541-1.355c-0.202-0.152-0.352-0.264-0.543-0.408
	c0.661-0.05,0.662-0.05,0.856-0.638c0.203-0.615,0.407-1.23,0.604-1.848c0.089-0.279,0.161-0.564,0.299-1.049
	c-1.038,0.179-1.915,0.321-2.789,0.484c-0.275,0.052-0.482,0.165-0.582,0.331l0.101,0.854l-0.776-0.507
	c-0.357,0.236-0.886,0.676-1.175,0.992c-0.477,0.521-1.177,0.998-0.446,1.973c-0.315-0.181-0.463-0.266-0.723-0.415
	c-0.281,1.026-1.588,1.661-0.807,2.971c-0.214-0.117-0.409-0.224-0.604-0.33c-0.464,0.885-0.46,1.636-0.037,2.233
	c-0.159,0.074-0.395,0.104-0.472,0.232C23.09,19.559,23.439,20.804,24.035,21.209z"/>
<path style="fill:#FFFFFF;" d="M14.637,34.908h17.509V22.794H14.637V34.908z M27.868,27.433c0.797,0,1.443,0.646,1.443,1.443
	c0,0.797-0.646,1.443-1.443,1.443c-0.797,0-1.443-0.646-1.443-1.443C26.424,28.079,27.07,27.433,27.868,27.433z M18.537,27.433
	c0.797,0,1.443,0.646,1.443,1.443c0,0.797-0.646,1.443-1.443,1.443c-0.797,0-1.443-0.646-1.443-1.443
	C17.094,28.079,17.74,27.433,18.537,27.433z"/>
<path style="fill:#FFFFFF;" d="M15.341,39.616v0.532h7.475v0.808h-7.475v1.051C17.964,43.271,20.893,44,24,44
	c0.09,0,0.178-0.012,0.268-0.014v-4.37H15.341z"/>
<path style="fill:#FFFFFF;" d="M28.564,42.503c-0.346,0-0.628,0.282-0.628,0.627c0,0.172,0.07,0.328,0.183,0.441
	c0.351-0.074,0.692-0.175,1.036-0.266c0.017-0.057,0.035-0.113,0.035-0.175C29.191,42.784,28.909,42.503,28.564,42.503z"/>
<path style="fill:#FFFFFF;" d="M28.564,39.074c-0.346,0-0.628,0.282-0.628,0.628c0,0.345,0.282,0.627,0.628,0.627
	c0.345,0,0.627-0.282,0.627-0.627C29.191,39.356,28.909,39.074,28.564,39.074z"/>
<path style="fill:#FFFFFF;" d="M15.341,36.093v2.715h9.734v5.137c0.738-0.039,1.464-0.116,2.179-0.234
	c-0.08-0.178-0.126-0.375-0.126-0.582c0-0.791,0.644-1.435,1.435-1.435c0.775,0,1.405,0.619,1.43,1.389
	c0.452-0.142,0.89-0.313,1.328-0.486v-6.505H15.341z M28.564,41.137c-0.792,0-1.435-0.644-1.435-1.435
	c0-0.792,0.644-1.435,1.435-1.435c0.791,0,1.435,0.644,1.435,1.435C29.998,40.493,29.355,41.137,28.564,41.137z"/>
<path style="fill:#FFFFFF;" d="M12.327,40.217c0.758,0.547,1.55,1.048,2.383,1.486v-3.329
	C13.563,38.375,12.607,39.159,12.327,40.217z"/>
<path style="fill:#FFFFFF;" d="M31.875,38.375v4.01c0.861-0.369,1.681-0.813,2.474-1.295v-0.241
	C34.35,39.482,33.242,38.375,31.875,38.375z"/>
</svg>