<?xml version="1.0" encoding="UTF-8"?>
<svg id="Logo_Largo" data-name="Logo Largo" xmlns="http://www.w3.org/2000/svg" viewBox="0 0 720 200">
  <defs>
    <style>
      .cls-1 {
        fill: #0cc0df;
      }

      .cls-1, .cls-2, .cls-3, .cls-4 {
        stroke-width: 0px;
      }

      .cls-2 {
        fill: #fc9d4c;
      }

      .cls-3 {
        fill: #fff;
      }

      .cls-4 {
        fill: #38383a;
      }

      .cls-5 {
        fill: none;
        stroke: #fff;
        stroke-linecap: round;
        stroke-linejoin: round;
        stroke-width: 2px;
      }
    </style>
  </defs>
  <g>
    <path class="cls-1" d="M71.1,53.12c-3.2,0-5.85-1.07-7.95-3.22-2.1-2.15-3.15-4.82-3.15-8.03s1.05-5.75,3.15-7.95c2.1-2.2,4.75-3.3,7.95-3.3s5.97,1.1,8.03,3.3c2.05,2.2,3.08,4.85,3.08,7.95s-1.03,5.88-3.08,8.03c-2.05,2.15-4.72,3.22-8.03,3.22ZM61.21,137.28v-72.45h19.8v72.45h-19.8Z"/>
    <path class="cls-1" d="M98.4,137.28v-72.45h19.65v72.45h-19.65ZM147.15,137.28v-41.55c0-4.3-1.35-7.8-4.05-10.5-2.7-2.7-6.2-4.05-10.5-4.05-2.8,0-5.3.6-7.5,1.8-2.2,1.2-3.93,2.9-5.18,5.1-1.25,2.2-1.88,4.75-1.88,7.65l-7.65-3.9c0-5.7,1.22-10.67,3.67-14.92,2.45-4.25,5.85-7.58,10.2-9.97,4.35-2.4,9.27-3.6,14.77-3.6s10.05,1.33,14.25,3.98c4.2,2.65,7.5,6.1,9.9,10.35,2.4,4.25,3.6,8.83,3.6,13.72v45.9h-19.65Z"/>
    <path class="cls-1" d="M206.25,137.28l-31.95-72.45h21.6l22.95,59.7h-10.65l23.1-59.7h20.85l-31.8,72.45h-14.1Z"/>
    <path class="cls-1" d="M293.7,138.78c-7.6,0-14.35-1.62-20.25-4.88-5.9-3.25-10.57-7.72-14.02-13.42s-5.17-12.2-5.17-19.5,1.67-13.62,5.02-19.28c3.35-5.65,7.92-10.15,13.73-13.5,5.8-3.35,12.25-5.02,19.35-5.02s13.17,1.57,18.53,4.72c5.35,3.15,9.55,7.45,12.6,12.9,3.05,5.45,4.58,11.62,4.58,18.52,0,1.3-.08,2.62-.23,3.98-.15,1.35-.43,2.88-.82,4.57l-60.9.15v-14.7l51.75-.15-7.95,6.15c-.2-4.3-.97-7.9-2.33-10.8-1.35-2.9-3.3-5.12-5.85-6.67-2.55-1.55-5.68-2.33-9.38-2.33-3.9,0-7.3.88-10.2,2.62-2.9,1.75-5.13,4.2-6.67,7.35-1.55,3.15-2.33,6.88-2.33,11.18s.83,8.23,2.48,11.47c1.65,3.25,4.02,5.75,7.12,7.5,3.1,1.75,6.7,2.62,10.8,2.62,3.7,0,7.05-.62,10.05-1.88,3-1.25,5.6-3.12,7.8-5.62l11.55,11.55c-3.5,4.1-7.78,7.2-12.82,9.3-5.05,2.1-10.53,3.15-16.43,3.15Z"/>
  </g>
  <g>
    <path class="cls-2" d="M400.5,82.08v-17.25h53.55v17.25h-53.55ZM417.45,137.28V34.68h19.65v102.6h-19.65Z"/>
    <path class="cls-2" d="M475.05,53.12c-3.2,0-5.85-1.07-7.95-3.22-2.1-2.15-3.15-4.82-3.15-8.03s1.05-5.75,3.15-7.95c2.1-2.2,4.75-3.3,7.95-3.3s5.97,1.1,8.03,3.3c2.05,2.2,3.08,4.85,3.08,7.95s-1.03,5.88-3.08,8.03c-2.05,2.15-4.72,3.22-8.03,3.22ZM465.15,137.28v-72.45h19.8v72.45h-19.8Z"/>
    <path class="cls-2" d="M531.75,135.33c-6.5,0-12.35-1.58-17.55-4.72-5.2-3.15-9.28-7.47-12.22-12.98-2.95-5.5-4.42-11.65-4.42-18.45s1.47-12.9,4.42-18.3c2.95-5.4,7.02-9.67,12.22-12.82,5.2-3.15,11.05-4.73,17.55-4.73,5.4,0,10.17,1.05,14.33,3.15,4.15,2.1,7.42,4.98,9.83,8.62,2.4,3.65,3.7,7.93,3.9,12.83v22.8c-.2,4.8-1.53,9.08-3.98,12.83-2.45,3.75-5.75,6.65-9.9,8.7-4.15,2.05-8.88,3.08-14.18,3.08ZM532.65,169.38c-7.7,0-14.5-1.38-20.4-4.12-5.9-2.75-10.6-6.62-14.1-11.62l12.45-12.45c2.8,3.3,5.92,5.82,9.38,7.57,3.45,1.75,7.62,2.62,12.52,2.62,6.1,0,10.92-1.55,14.48-4.65,3.55-3.1,5.33-7.4,5.33-12.9v-18.15l3.3-15.9-3.15-15.9v-19.05h19.5v68.7c0,7.2-1.68,13.47-5.02,18.83-3.35,5.35-7.98,9.52-13.88,12.52-5.9,3-12.7,4.5-20.4,4.5ZM535.65,117.48c3.6,0,6.72-.77,9.38-2.33,2.65-1.55,4.72-3.7,6.22-6.45,1.5-2.75,2.25-5.87,2.25-9.38s-.75-6.75-2.25-9.45c-1.5-2.7-3.58-4.82-6.22-6.38-2.65-1.55-5.78-2.32-9.38-2.32s-6.75.78-9.45,2.32c-2.7,1.55-4.8,3.7-6.3,6.45-1.5,2.75-2.25,5.88-2.25,9.38s.75,6.48,2.25,9.23c1.5,2.75,3.6,4.93,6.3,6.52,2.7,1.6,5.85,2.4,9.45,2.4Z"/>
    <path class="cls-2" d="M619.5,138.78c-6.6,0-12.55-1.65-17.85-4.95-5.3-3.3-9.45-7.8-12.45-13.5s-4.5-12.1-4.5-19.2,1.5-13.65,4.5-19.35,7.15-10.2,12.45-13.5c5.3-3.3,11.25-4.95,17.85-4.95,5.2,0,9.85,1.05,13.95,3.15,4.1,2.1,7.37,5.02,9.83,8.77,2.45,3.75,3.77,7.98,3.97,12.68v26.1c-.2,4.8-1.53,9.05-3.97,12.75-2.45,3.7-5.73,6.63-9.83,8.78-4.1,2.15-8.75,3.22-13.95,3.22ZM623.09,120.62c5.5,0,9.95-1.82,13.35-5.47,3.4-3.65,5.1-8.37,5.1-14.17,0-3.8-.78-7.17-2.33-10.12-1.55-2.95-3.7-5.25-6.45-6.9-2.75-1.65-5.98-2.47-9.68-2.47s-6.78.83-9.52,2.47c-2.75,1.65-4.9,3.95-6.45,6.9-1.55,2.95-2.33,6.33-2.33,10.12s.77,7.33,2.33,10.27c1.55,2.95,3.7,5.25,6.45,6.9,2.75,1.65,5.92,2.47,9.52,2.47ZM640.5,137.28v-19.5l3.15-17.7-3.15-17.4v-17.85h19.5v72.45h-19.5Z"/>
  </g>
  <g>
    <path class="cls-2" d="M381.93,80.73l7.98-7.98c-2.59-3.01-5.91-5.46-9.97-7.35-4.06-1.89-8.61-2.83-13.65-2.83-1.7,0-3.34.11-4.91.33,10.43.1,19.04,7.8,20.56,17.83Z"/>
    <path class="cls-1" d="M388.43,106.82c-1.26-2.62-2.92-4.78-4.99-6.46-1.75-1.42-3.66-2.6-5.7-3.57-3.84,4.94-9.84,8.12-16.59,8.12-.69,0-1.38-.04-2.05-.1,1.12.41,2.23.81,3.35,1.17,2.48.81,4.76,1.7,6.82,2.68,2.06.98,3.73,2.17,4.99,3.57,1.26,1.4,1.89,3.22,1.89,5.46,0,2.59-1.1,4.62-3.31,6.09-2.2,1.47-5.16,2.2-8.87,2.2-4.13,0-7.63-.79-10.5-2.36-2.87-1.57-5.39-3.8-7.56-6.67l-9.45,9.45c3.43,4.06,7.26,7.1,11.49,9.13,4.23,2.03,9.32,3.04,15.27,3.04,8.4,0,15.01-1.96,19.84-5.88,4.83-3.92,7.24-9.31,7.24-16.17,0-3.85-.63-7.09-1.89-9.71Z"/>
    <circle class="cls-4" cx="361.16" cy="83.91" r="16.85"/>
    <path class="cls-5" d="M374.48,82.26c.08.58.11,1.17.11,1.77,0,1.2-.16,2.37-.45,3.48"/>
    <path class="cls-5" d="M353.31,72.88c2.19-1.52,4.85-2.41,7.72-2.41,5.75,0,10.66,3.58,12.64,8.62"/>
    <g>
      <rect class="cls-3" x="370.7" y="96.33" width="4.05" height="6.65" rx="1.76" ry="1.76" transform="translate(526.11 453.67) rotate(-128.39)"/>
      <rect class="cls-3" x="371.88" y="98.13" width="4.43" height="6.5" rx="1.93" ry="1.93" transform="translate(17.93 254.26) rotate(-38.39)"/>
      <rect class="cls-3" x="376.25" y="101.11" width="6.85" height="14.61" rx="2" ry="2" transform="translate(14.77 259.24) rotate(-38.39)"/>
    </g>
  </g>
</svg>