<svg width="253" height="46" viewBox="0 0 253 46" fill="none" xmlns="http://www.w3.org/2000/svg">
<path d="M14.4124 7.78968C14.4124 11.7695 11.186 14.9959 7.20618 14.9959C3.22632 14.9959 0 11.7695 0 7.78968C0 3.80981 3.22632 0.583496 7.20618 0.583496C11.186 0.583496 14.4124 3.80981 14.4124 7.78968Z" fill="#018BC6"/>
<path d="M0 35.2797V14.9956L7.20618 21.0808L14.4124 14.9956V35.2797L7.20618 45.4217L0 35.2797Z" fill="#018BC6"/>
<path d="M187.361 7.78968C187.361 11.7695 184.134 14.9959 180.155 14.9959C176.175 14.9959 172.948 11.7695 172.948 7.78968C172.948 3.80981 176.175 0.583496 180.155 0.583496C184.134 0.583496 187.361 3.80981 187.361 7.78968Z" fill="#018BC6"/>
<path d="M172.948 35.2797V14.9956L180.155 21.0808L187.361 14.9956V35.2797L180.155 45.4217L172.948 35.2797Z" fill="#018BC6"/>
<path d="M19.3766 15.2517C19.3766 14.0346 19.745 13.0898 20.4816 12.4173C21.2503 11.7127 22.3072 11.3604 23.6523 11.3604L42.2923 39.7047L42.6286 39.4164L41.2354 37.1104V11.3604C42.7087 11.3604 43.8136 11.6806 44.5502 12.3212C45.3189 12.9617 45.7032 13.8905 45.7032 15.1076V42.2989C45.7032 43.3238 45.3349 44.1725 44.5983 44.8451C43.8937 45.5177 42.9809 45.8539 41.8599 45.8539L22.7876 16.8851L22.4513 17.1733L23.8445 19.4793V42.1067C23.8445 43.3238 23.4602 44.2526 22.6915 44.8931C21.9549 45.5337 20.8499 45.8539 19.3766 45.8539V15.2517Z" fill="#045B80"/>
<path d="M64.5876 45.8539C63.5306 45.8539 62.81 45.3735 62.4257 44.4127L50.0311 11.7927C50.2873 11.6646 50.5915 11.5685 50.9438 11.5045C51.2962 11.4084 51.6164 11.3604 51.9047 11.3604C52.8014 11.3604 53.5541 11.5845 54.1626 12.0329C54.8032 12.4493 55.2676 13.0418 55.5558 13.8105L64.3473 38.3595L63.4826 40.8096L63.8669 40.9537L73.6193 13.8105C73.9075 13.0418 74.3719 12.4493 75.0125 12.0329C75.653 11.5845 76.4217 11.3604 77.3185 11.3604C77.8629 11.3604 78.4875 11.5045 79.1921 11.7927L66.7975 44.4127C66.6373 44.8611 66.3651 45.2134 65.9807 45.4696C65.5964 45.7258 65.132 45.8539 64.5876 45.8539Z" fill="#045B80"/>
<path d="M84.7296 13.9065C84.7296 13.298 84.9538 12.8016 85.4022 12.4173C85.8505 12.0009 86.395 11.7927 87.0356 11.7927H108.318C108.318 13.1379 108.046 14.1307 107.501 14.7713C106.957 15.4118 106.108 15.7321 104.955 15.7321H89.2455V26.4933H102.697C102.697 27.8385 102.425 28.8313 101.88 29.4719C101.336 30.1124 100.503 30.4327 99.3821 30.4327H89.2455V41.4822H105.964C107.085 41.4822 107.917 41.8025 108.462 42.443C109.006 43.0836 109.279 44.0764 109.279 45.4216H87.0356C86.395 45.4216 85.8505 45.2294 85.4022 44.8451C84.9538 44.4287 84.7296 43.9163 84.7296 43.3078V13.9065Z" fill="#045B80"/>
<path d="M125.593 45.8539C122.902 45.8539 120.564 45.4696 118.579 44.701C116.625 43.9323 115.136 42.9074 114.111 41.6263C113.086 40.3452 112.574 38.968 112.574 37.4948C112.574 36.2777 112.894 35.3489 113.534 34.7084C114.175 34.0358 115.152 33.6995 116.465 33.6995C116.465 36.4219 117.282 38.5036 118.915 39.9449C120.548 41.3541 122.838 42.0587 125.785 42.0587C128.603 42.0587 130.765 41.5943 132.27 40.6655C133.776 39.7047 134.528 38.2955 134.528 36.4379C134.528 35.3169 134.24 34.4041 133.664 33.6995C133.119 32.9629 132.174 32.3383 130.829 31.8259C129.516 31.2814 127.61 30.737 125.112 30.1925C122.166 29.552 119.828 28.8153 118.098 27.9826C116.369 27.1179 115.104 26.077 114.303 24.8599C113.502 23.6429 113.102 22.1376 113.102 20.3441C113.102 18.5505 113.598 16.9812 114.591 15.636C115.616 14.2588 117.057 13.2019 118.915 12.4653C120.773 11.7287 122.934 11.3604 125.401 11.3604C127.739 11.3604 129.82 11.6966 131.646 12.3692C133.504 13.0098 134.945 13.9386 135.97 15.1556C137.027 16.3406 137.555 17.6858 137.555 19.1911C137.555 20.1199 137.251 20.8565 136.642 21.401C136.066 21.9134 135.153 22.1696 133.904 22.1696C133.552 19.7355 132.687 17.958 131.31 16.8371C129.965 15.7161 127.995 15.1556 125.401 15.1556C122.902 15.1556 120.981 15.604 119.636 16.5008C118.29 17.3655 117.618 18.5986 117.618 20.1999C117.618 21.3209 117.858 22.2497 118.339 22.9863C118.851 23.6909 119.7 24.2995 120.885 24.8119C122.102 25.3243 123.799 25.8208 125.977 26.3012C129.244 27.0058 131.806 27.7904 133.664 28.6552C135.553 29.5199 136.914 30.5768 137.747 31.8259C138.58 33.075 138.996 34.6123 138.996 36.4379C138.996 39.3524 137.779 41.6583 135.345 43.3558C132.911 45.0212 129.66 45.8539 125.593 45.8539Z" fill="#045B80"/>
<path d="M152.382 15.7801H140.66C140.66 13.1219 141.909 11.7927 144.407 11.7927H168.572C168.572 14.451 167.323 15.7801 164.825 15.7801H156.898V42.1067C156.898 43.3238 156.514 44.2526 155.745 44.8931C154.976 45.5337 153.855 45.8539 152.382 45.8539V15.7801Z" fill="#045B80"/>
<path d="M205.712 45.8539C202.99 45.8539 200.572 45.3575 198.458 44.3647C196.344 43.3398 194.695 41.9306 193.51 40.137C192.324 38.3115 191.732 36.2457 191.732 33.9397V23.1785C191.732 20.8725 192.308 18.8228 193.461 17.0292C194.646 15.2357 196.28 13.8425 198.362 12.8496C200.443 11.8568 202.829 11.3604 205.52 11.3604C208.21 11.3604 210.596 11.7927 212.678 12.6575C214.76 13.4902 216.377 14.6592 217.53 16.1645C218.715 17.6698 219.308 19.3832 219.308 21.3049C219.308 22.2657 218.987 23.0184 218.347 23.5628C217.706 24.1073 216.858 24.3795 215.801 24.3795C215.576 24.3795 215.24 24.3475 214.792 24.2834C214.856 23.8991 214.888 23.2906 214.888 22.4579C214.888 21.0807 214.488 19.8476 213.687 18.7587C212.918 17.6698 211.813 16.821 210.372 16.2125C208.963 15.604 207.345 15.2997 205.52 15.2997C203.726 15.2997 202.125 15.636 200.716 16.3086C199.306 16.9491 198.202 17.8779 197.401 19.095C196.632 20.28 196.248 21.6412 196.248 23.1785V33.9397C196.248 35.477 196.648 36.8542 197.449 38.0713C198.25 39.2883 199.371 40.2331 200.812 40.9057C202.253 41.5783 203.886 41.9146 205.712 41.9146C207.506 41.9146 209.107 41.6103 210.516 41.0018C211.957 40.3933 213.062 39.5285 213.831 38.4076C214.632 37.2866 215.032 36.0215 215.032 34.6123V31.922H208.979C207.986 31.922 207.185 31.5857 206.577 30.9131C205.968 30.2085 205.664 29.2957 205.664 28.1748H217.386C218.027 28.1748 218.539 28.3669 218.923 28.7513C219.34 29.1356 219.548 29.648 219.548 30.2886V34.6603C219.548 36.8382 218.955 38.7759 217.77 40.4733C216.617 42.1708 214.984 43.4999 212.87 44.4607C210.788 45.3895 208.402 45.8539 205.712 45.8539Z" fill="#045B80"/>
<path d="M227.443 45.8539C226.482 45.6618 225.729 45.2614 225.185 44.6529C224.64 44.0124 224.368 43.2437 224.368 42.3469C224.368 41.7384 224.512 41.0979 224.8 40.4253L236.282 12.8016C236.667 11.8408 237.403 11.3604 238.492 11.3604C239.517 11.3604 240.238 11.8408 240.654 12.8016L252.136 40.4253C252.424 41.0979 252.568 41.7384 252.568 42.3469C252.568 43.2117 252.296 43.9643 251.752 44.6049C251.207 45.2454 250.454 45.6618 249.494 45.8539L245.362 35.8133H231.574L227.443 45.8539ZM243.969 31.922L237.772 16.2125L237.387 16.3566L238.252 18.5665L232.967 31.922H243.969Z" fill="#045B80"/>
</svg>
