<?xml version="1.0" encoding="UTF-8"?>
<svg id="Capa_2" data-name="Capa 2" xmlns="http://www.w3.org/2000/svg" viewBox="0 0 652 200">
  <defs>
    <style>
      .cls-1 {
        fill: #0cc0df;
      }

      .cls-1, .cls-2 {
        stroke-width: 0px;
      }

      .cls-2 {
        fill: #fc9d4c;
      }
    </style>
  </defs>
  <path class="cls-1" d="M74.8,46c-7.2,0-10.8-3.6-10.8-10.8s3.6-10.8,10.8-10.8,10.8,3.6,10.8,10.8-3.6,10.8-10.8,10.8ZM65.5,139.6v-74.4c0-1.6,1.8-2.4,5.4-2.4s7,.25,10.2.75c3.2.5,4.8,1.05,4.8,1.65v74.4c0,.6-.05,1-.15,1.2-.5.8-2.4,1.2-5.7,1.2s-6.55-.25-9.75-.75c-3.2-.5-4.8-1.05-4.8-1.65Z"/>
  <path class="cls-1" d="M137.8,62.8c7.4,0,12.83,2.3,16.28,6.9,3.45,4.6,5.17,12.7,5.17,24.3v45.6c0,.6-.05,1-.15,1.2-.5.8-2.43,1.2-5.77,1.2s-6.78-.25-10.28-.75c-3.5-.5-5.25-1.05-5.25-1.65l-.15-45.6c0-11.2-.8-16.8-2.4-16.8-3.6,0-8.4,1.8-14.4,5.4v57c0,.6-.05,1-.15,1.2-.5.8-2.43,1.2-5.78,1.2s-6.8-.25-10.35-.75c-3.55-.5-5.33-1.05-5.33-1.65v-74.4c0-1.6,2-2.4,6-2.4,6.3,0,9.9.8,10.8,2.4,0,.2.05.3.15.3l2.85,5.7c8.4-5.6,14.65-8.4,18.75-8.4Z"/>
  <path class="cls-1" d="M168.85,64.75c0-1.3,1.82-1.95,5.47-1.95s7.05.25,10.2.75c3.15.5,4.77,1.05,4.88,1.65l13.35,56.1,11.7-56.1c.4-1.6,2-2.4,4.8-2.4s5.15.1,7.05.3c4.6.5,6.8,1.2,6.6,2.1l-.15.3-18.75,74.1c-.4,1.6-2.33,2.4-5.77,2.4s-7.1-.25-10.95-.75c-3.85-.5-5.88-1.05-6.08-1.65l-22.2-74.1v-.3c-.1-.2-.15-.35-.15-.45Z"/>
  <path class="cls-1" d="M270.25,142c-10.7,0-18.13-2.9-22.27-8.7-4.15-5.8-6.23-16.2-6.23-31.2,0-10.8.95-19.02,2.85-24.67,1.9-5.65,4.77-9.5,8.62-11.55,3.85-2.05,9.52-3.08,17.02-3.08s13.17,1.05,17.03,3.15c3.85,2.1,6.67,6,8.47,11.7s2.7,13.8,2.7,24.3v1.8c0,.6-1.18,1.15-3.53,1.65-2.35.5-5.17.75-8.47.75h-23.1c.2,11.7,1.05,18.35,2.55,19.95.9.8,2.35,1.2,4.35,1.2,13.1,0,22.05-.65,26.85-1.95.2-.1.35-.15.45-.15.7-.2,1.28.2,1.73,1.2.45,1,.67,3.35.67,7.05s-.8,5.75-2.4,6.15c-4.1,1.6-13.2,2.4-27.3,2.4ZM263.35,82.45v11.7h15.15c-.4-11.6-1.55-17.4-3.45-17.4-3.4,0-6.2.5-8.4,1.5-2.2,1-3.3,2.4-3.3,4.2Z"/>
  <path class="cls-2" d="M314.11,96.1c-1.27.79-3.15-.8-5.64-4.79l-.48-.76c-2.81-4.49-3.58-7.14-2.3-7.93l37.65-23.53,3.31.76,7.15,11.45-.04,49.19,24.17-15.1c1.36-.85,3.1.43,5.21,3.82,3.71,5.94,4.94,9.41,3.69,10.43l-40.71,25.44-3.31-.76-6.36-10.18,1.31-52.82-23.66,14.78Z"/>
  <path class="cls-1" d="M435.75,139.6v-62.4h-17.25v47.7l2.4,16.95v.15c.1.6.1,1,0,1.2-.5.8-3.03,1.2-7.57,1.2s-7.18-.8-7.88-2.4l-7.2-14.55v-50.25h-12c-1.2,0-1.88-.27-2.03-.82-.15-.55-.22-1.17-.22-1.88,0-4.3.75-6.6,2.25-6.9l12-2.4,8.4-16.95c1.2-1.5,3.5-2.25,6.9-2.25.9,0,1.75,1.8,2.55,5.4.8,3.6,1.65,8.2,2.55,13.8h23.1c9.6,0,14.4,1.4,14.4,4.2v70.2c0,.6-.05,1-.15,1.2-.5.8-2.4,1.2-5.7,1.2s-6.55-.25-9.75-.75c-3.2-.5-4.8-1.05-4.8-1.65ZM444,46c-7.2,0-10.8-3.6-10.8-10.8s3.6-10.8,10.8-10.8,10.8,3.6,10.8,10.8-3.6,10.8-10.8,10.8Z"/>
  <path class="cls-1" d="M500.4,146.8l-12.75.15c-6.2,0-9.93-.5-11.17-1.5-1.25-1-1.88-2.2-1.88-3.6s.25-2.95.75-4.65l5.25-15.9c-4.8-2.1-8.25-5.55-10.35-10.35-2.1-4.8-3.15-10.8-3.15-18s.45-12.65,1.35-16.35c.9-3.7,2.62-6.6,5.17-8.7,2.55-2.1,5.57-3.47,9.08-4.12,3.5-.65,8.3-.97,14.4-.97h32.7c1.6,0,2.4,2,2.4,6,0,2-.8,3.2-2.4,3.6l-.45.15-6.45,1.2c2.8,4.6,4.2,10.55,4.2,17.85,0,11.5-2.23,19.78-6.67,24.83-4.45,5.05-12.22,7.58-23.33,7.58h-3.3l-1.35,7.05c11.3.2,18.65.6,22.05,1.2,3.4.6,5.75,1.3,7.05,2.1,1.3.8,2.52,2,3.67,3.6,1.15,1.6,1.85,3.45,2.1,5.55.25,2.1.38,4.85.38,8.25,0,8.3-2.3,14.35-6.9,18.15-4.6,3.8-12.8,5.7-24.6,5.7-5.5,0-12.4-.8-20.7-2.4-1.5-.3-2.25-2.85-2.25-7.65s.7-7.2,2.1-7.2h.3c9,1,16.17,1.5,21.53,1.5s8.67-.4,9.97-1.2c1.3-.8,1.95-2.77,1.95-5.92s-.58-4.93-1.72-5.33c-1.15-.4-3.48-.6-6.98-.6ZM489.07,79.23c-1.35,1.35-2.03,5.1-2.03,11.25s.27,10.6.83,13.35c.55,2.75,1.12,4.35,1.72,4.8.6.45,2.07.67,4.42.67s4.25-.08,5.7-.23c1.45-.15,2.78-.87,3.98-2.17,1.2-1.3,1.88-3,2.02-5.1.15-2.1.23-5.4.23-9.9s-.28-7.88-.83-10.12c-.55-2.25-1.12-3.57-1.73-3.97-.6-.4-1.45-.6-2.55-.6-6.5,0-10.42.68-11.77,2.03Z"/>
  <path class="cls-1" d="M570,134.95c-5.2,4.7-9.82,7.05-13.88,7.05s-7.33-.28-9.82-.83c-2.5-.55-4.75-1.75-6.75-3.6-2-1.85-3.4-4.52-4.2-8.02-.8-3.5-1.2-8.15-1.2-13.95,0-8.1,3.95-13.65,11.85-16.65l21.45-5.55c-.1-6.5-.75-10.7-1.95-12.6-1.2-1.9-3.8-2.85-7.8-2.85s-7.45.65-10.35,1.95l-5.25,2.1h-.15c-.9.5-1.7.1-2.4-1.2-1.8-3.8-2.7-6.77-2.7-8.92s.17-3.35.52-3.6c.35-.25.53-.42.53-.52,5-3.3,11.47-4.95,19.42-4.95s14.07,1.05,18.38,3.15c4.3,2.1,7.42,5.93,9.38,11.48s2.92,13.78,2.92,24.67l-.3,37.5c0,.6-.1,1-.3,1.2-.4.8-2.3,1.2-5.7,1.2-6.2,0-9.3-.8-9.3-2.4l-2.4-4.65ZM550.8,115.9c0,7.2,2.1,11,6.3,11.4,2.9,0,5-.5,6.3-1.5,2.8-1.9,4.2-9,4.2-21.3-5.2.7-9.3,2.12-12.3,4.27-3,2.15-4.5,4.53-4.5,7.12Z"/>
</svg>