<?xml version="1.0" encoding="UTF-8"?>
<svg id="Capa_2" data-name="Capa 2" xmlns="http://www.w3.org/2000/svg" viewBox="0 0 820.12 223">
  <defs>
    <style>
      .cls-1 {
        fill: #0cc0df;
      }

      .cls-1, .cls-2 {
        stroke-width: 0px;
      }

      .cls-2 {
        fill: #fc9d4c;
      }
    </style>
  </defs>
  <path class="cls-1" d="M35.35,169.27V51.3h23.59v117.97h-23.59Z"/>
  <path class="cls-1" d="M100.85,169.27h-23.59V48.83h6.27l59.56,69.3V51.47h23.76v120.28h-6.27l-59.73-66.66v64.18Z"/>
  <path class="cls-1" d="M172.96,51.3h27.22l15.67,39.27,8.58,24.42,8.41-23.59,15.84-40.09h27.22l-48.84,120.44h-5.28l-48.84-120.44Z"/>
  <path class="cls-1" d="M282.02,169.27V51.3h59.07v23.59h-35.47v23.59h31.02v23.59h-31.02v23.59h37.45v23.59h-61.05Z"/>
  <path class="cls-2" d="M411.69,182.1c-6.55-34.09-13.19-68.31-19.64-102.27l-29.73,20.82-13.15-18.79,58.52-40.98,19.17,101.59,35.95-25.17,13.63,19.46-64.74,45.33Z"/>
  <path class="cls-1" d="M486.42,169.27v-94.38h-29.37v-23.43h82.33v23.43h-29.37v94.38h-23.59Z"/>
  <path class="cls-1" d="M548.96,169.27V51.3h23.59v117.97h-23.59Z"/>
  <path class="cls-1" d="M645.48,169.93c-77.88,0-81.84-116.65,0-119.62,14.03-.5,25.41,3.63,27.55,4.29l-2.8,23.92c-4.62-1.98-12.21-4.62-24.75-4.29-47.68,1.65-45.54,72.1,0,72.1,2.14,0,4.46-.33,6.6-.66v-35.47h23.92v51.81c-9.07,5.12-19.3,7.92-30.52,7.92Z"/>
  <path class="cls-1" d="M732.76,47.01h2.47l49.66,122.26h-26.56l-4.79-12.7h-39.1l-4.62,12.7h-26.73l49.66-122.26ZM744.81,134.46l-10.72-30.69-11.05,30.69h21.78Z"/>
</svg>